<?xml version="1.0" encoding="UTF-8"?>
<svg version="1.1" xmlns="http://www.w3.org/2000/svg" width="1080" height="1080">
<path d="M0 0 C2.93368146 0.32524185 3.89242328 0.87978025 5.89453125 3.1171875 C6.52746094 4.02726562 7.16039062 4.93734375 7.8125 5.875 C8.51375 6.87660156 9.215 7.87820313 9.9375 8.91015625 C11.78661257 11.680323 13.56150712 14.47976393 15.3125 17.3125 C27.01416179 35.8053048 42.70547026 51.9261103 60.3671875 64.80273438 C61.95057057 65.96375569 63.50712067 67.16109807 65.0625 68.359375 C135.56595407 121.23696555 233.30721794 142.52675884 375.11236572 154.70965576 C384.66976314 155.42344082 394.22647991 156.14573411 403.78231812 156.88009644 C406.86987874 157.11509624 409.9579345 157.34229861 413.04614258 157.56860352 C477.1119498 162.37911766 477.1119498 162.37911766 497 178 C497.73476563 178.54914063 498.46953125 179.09828125 499.2265625 179.6640625 C510.59404233 188.84398607 516.256901 201.22792266 520 215 C520.23332031 215.8559375 520.46664062 216.711875 520.70703125 217.59375 C522.87399895 226.44869714 523.14279127 235.54281428 523.24609375 244.6171875 C523.27902657 246.62630653 523.31223831 248.63542101 523.34570312 250.64453125 C523.39299475 253.75989764 523.43750309 256.87524483 523.47680664 259.99072266 C523.63697323 286.50767007 523.63697323 286.50767007 535 310 C535.80050781 311.04994141 535.80050781 311.04994141 536.6171875 312.12109375 C555.23922137 334.76461742 586.40476158 346.53872791 613.24609375 355.8515625 C613.99995361 356.11614258 614.75381348 356.38072266 615.53051758 356.65332031 C617.46348422 357.31934775 619.40714983 357.95410529 621.3515625 358.5859375 C624 360 624 360 625.02734375 362.1875 C624.99128949 365.89593776 624.08887809 369.13646529 622.9375 372.625 C622.70853027 373.33213135 622.47956055 374.0392627 622.24365234 374.76782227 C618.54584913 385.74777942 612.68180984 395.10111104 604.6484375 403.44140625 C597.97621933 410.3718372 593.60932943 417.49692038 589.10449219 425.93603516 C581.21256232 440.68368659 573.0974732 452.26447108 556.4765625 457.84765625 C552.08591612 459.03412542 552.08591612 459.03412542 550 459 C548.37109375 457.65625 548.37109375 457.65625 547 456 C546.34 455.34 545.68 454.68 545 454 C544.55011719 454.44730469 544.10023438 454.89460938 543.63671875 455.35546875 C535.55803919 462.94845615 526.45441149 467.15540085 515.3125 467.125 C513.88357422 467.12886719 513.88357422 467.12886719 512.42578125 467.1328125 C510 467 510 467 508 466 C507.91803882 461.81998005 508.10554296 458.07787895 509 454 C508.23429688 454.97839844 508.23429688 454.97839844 507.453125 455.9765625 C500.99290346 463.74257351 494.4282124 469.35398064 484.07421875 470.39453125 C478.62090997 470.54091995 473.32691719 470.22306827 468 469 C469.31117661 461.88879511 471.01720516 454.95300057 473 448 C471.96552734 449.19496094 471.96552734 449.19496094 470.91015625 450.4140625 C460.74914697 461.96447144 449.54410102 470.29304468 433.6171875 471.4140625 C423.20704376 471.75224349 423.20704376 471.75224349 419.54296875 469.46875 C419.03378906 468.9840625 418.52460937 468.499375 418 468 C418.33013412 461.5890084 421.76158569 456.91400785 425.0625 451.625 C425.63033203 450.69816406 426.19816406 449.77132813 426.78320312 448.81640625 C428.18027616 446.538825 429.5860041 444.26709935 431 442 C427.62547926 442.76283118 425.29542256 443.93372653 422.375 445.8125 C405.87753251 455.92932933 386.51815838 458.24696229 367.609375 454.6953125 C363.93692214 453.71672476 361.80144368 452.5742996 359 450 C358.19140625 448.08203125 358.19140625 448.08203125 358 446 C358.9765625 444.31640625 358.9765625 444.31640625 360.625 442.5625 C361.25921875 441.87929688 361.8934375 441.19609375 362.546875 440.4921875 C364.4619648 438.54660264 366.38855768 436.61629321 368.328125 434.6953125 C368.91126465 434.1170874 369.4944043 433.5388623 370.09521484 432.94311523 C371.27163804 431.78266815 372.4541829 430.62839097 373.64306641 429.48071289 C377.01457772 426.20383001 377.01457772 426.20383001 379 422 C378.06800781 422.53109375 377.13601563 423.0621875 376.17578125 423.609375 C350.54465147 437.9218087 324.46639998 437.33819297 296.8125 429.5625 C296.11729248 429.36954346 295.42208496 429.17658691 294.70581055 428.9777832 C289.89125462 427.53523945 285.5987166 425.5987166 282 422 C281.671875 419.64453125 281.671875 419.64453125 282 417 C283.765625 415.26171875 283.765625 415.26171875 286.25 413.6875 C287.15363281 413.0996875 288.05726563 412.511875 288.98828125 411.90625 C289.98214844 411.2771875 290.97601563 410.648125 292 410 C294.14824423 408.56610542 296.29409581 407.1286195 298.4375 405.6875 C300.29106621 404.45742803 302.14513241 403.22810868 304 402 C304.99 401.34 305.98 400.68 307 400 C306.14664062 400.144375 305.29328125 400.28875 304.4140625 400.4375 C270.99147494 405.39920372 234.64113454 400.877117 206.09765625 381.44921875 C203 379 203 379 201.8125 375.9375 C202 373 202 373 203.61669922 370.95776367 C206.44376278 368.63547083 208.82360441 367.80075995 212.3203125 366.73828125 C213.57054199 366.34560059 214.82077148 365.95291992 216.10888672 365.54833984 C216.76564392 365.34666199 217.42240112 365.14498413 218.09906006 364.93719482 C230.68377363 361.05672173 242.48671566 356.4586717 254 350 C252.95328125 350.144375 251.9065625 350.28875 250.828125 350.4375 C232.0569034 352.82074332 211.58636833 354.19104384 193 350 C191.76685059 349.73340576 191.76685059 349.73340576 190.50878906 349.46142578 C173.00354493 345.5997038 157.54248371 339.53055814 142.5 329.75 C141.88253906 329.35006836 141.26507813 328.95013672 140.62890625 328.53808594 C137.09707841 326.12146678 134.77895748 323.9149817 133 320 C133.06598165 316.70091743 133.19057836 314.81732217 135.55078125 312.43408203 C138.89903359 310.47359217 142.361742 309.89257323 146.125 309.1796875 C155.69067477 307.20839274 164.77804421 304.30505377 174 301.125 C175.49970259 300.61500999 176.99970298 300.10589489 178.5 299.59765625 C181.47799944 298.58781645 184.45437002 297.57337648 187.4296875 296.55566406 C194.93818912 293.9927131 202.47031998 291.49988047 210 289 C208.96931396 288.93530518 207.93862793 288.87061035 206.87670898 288.80395508 C167.10360745 286.249198 167.10360745 286.249198 149 281 C147.95408691 280.69852051 146.90817383 280.39704102 145.83056641 280.08642578 C113.65310165 270.56716119 86.5572559 255.80316619 62 233 C61.40703125 232.46117187 60.8140625 231.92234375 60.203125 231.3671875 C52.53308936 224.09891564 45.46885811 215.02937932 40 206 C40 205.01 40 204.02 40 203 C45.60319778 203.29490515 50.22036527 204.33830479 55.5 206.25 C73.38956751 212.61739383 93.9967717 216.22895456 113 216 C112.00742187 215.64808594 111.01484375 215.29617188 109.9921875 214.93359375 C67.91485298 199.76175385 39.19223212 170.07016351 17 132 C16.50999512 131.16275391 16.01999023 130.32550781 15.51513672 129.46289062 C9.98578328 119.98603027 4.60844397 110.42736827 -0.5625 100.75 C-0.96799072 100.00049072 -1.37348145 99.25098145 -1.79125977 98.47875977 C-4.38616142 93.55610299 -6.81428973 88.46764154 -8 83 C-7.505 82.01 -7.505 82.01 -7 81 C-3.46676823 82.27996612 -0.70825426 83.76535901 2.265625 86.0546875 C3.46409058 86.96806885 3.46409058 86.96806885 4.68676758 87.89990234 C5.95556763 88.87757568 5.95556763 88.87757568 7.25 89.875 C9.04947983 91.24129906 10.85028254 92.60585742 12.65234375 93.96875 C13.55194824 94.649375 14.45155273 95.33 15.37841797 96.03125 C33.69325067 109.78528342 51.80394346 120.22931324 73 129 C72.5570459 128.62705811 72.1140918 128.25411621 71.65771484 127.86987305 C62.06734468 119.73309557 53.75935843 110.88539556 46 101 C45.20980469 100.03835938 44.41960937 99.07671875 43.60546875 98.0859375 C32.62135888 84.42066696 24.46531028 68.80754668 17 53 C16.6690332 52.30616211 16.33806641 51.61232422 15.99707031 50.89746094 C-0.77389157 15.47783139 -0.77389157 15.47783139 0 0 Z M34 59 C35.58357178 63.84386663 38.33026302 67.49026967 41.375 71.5 C41.90955811 72.20632568 42.44411621 72.91265137 42.99487305 73.64038086 C48.2616462 80.49776429 53.96900179 86.81339774 60 93 C60.8962207 93.9269165 60.8962207 93.9269165 61.81054688 94.87255859 C69.48294992 102.78447681 77.24693109 110.27480177 86 117 C87.28662639 118.00369086 88.57307132 119.00761435 89.859375 120.01171875 C102.15550082 129.55963541 114.55734312 139.12466379 128.125 146.8125 C128.69677979 147.13702148 129.26855957 147.46154297 129.85766602 147.79589844 C131.88480111 148.90774203 133.93776456 149.95432063 136 151 C137.00892303 151.5142453 138.01784607 152.0284906 139.05734253 152.55831909 C148.95294891 157.40129756 158.88193856 160.5667337 169.5 163.42578125 C171.23331362 163.90306259 172.9662993 164.38153632 174.69897461 164.86112976 C179.21062168 166.10660217 183.72640814 167.33631936 188.24334717 168.56243896 C192.84322841 169.81402627 197.43902725 171.08041991 202.03515625 172.34570312 C209.44807184 174.38496146 216.86308653 176.4163189 224.28224182 178.43276978 C226.18901492 178.95205522 228.09453382 179.47593927 230 180 C230.66144012 180.15556051 231.32288025 180.31112103 232.00436401 180.47139549 C233.92553711 180.94596863 233.92553711 180.94596863 237 182 C237.33 182.99 237.66 183.98 238 185 C226.79425614 184.4266402 215.82990917 182.95040863 204.75 181.25 C203.42924973 181.04925369 203.42924973 181.04925369 202.08181763 180.8444519 C187.31069074 178.59436596 172.62025685 176.0952303 158 173 C156.78586426 172.74637695 155.57172852 172.49275391 154.32080078 172.23144531 C105.78591747 162.00521565 62.22967087 143.92926819 22.65625 113.76171875 C19.1563165 111.09827686 15.5903384 108.54007188 12 106 C13.43000586 111.1927587 15.75447431 115.02980883 18.8125 119.375 C19.30186035 120.07343018 19.7912207 120.77186035 20.29541016 121.49145508 C35.74163436 143.25925286 54.10327689 162.64349692 76 178 C77.16945002 178.85001395 78.33872673 179.70026639 79.5078125 180.55078125 C108.38604723 201.09617512 146.2974676 218.32745833 182.19140625 218.0625 C184.66625934 218.05383255 187.14111288 218.04529299 189.6159668 218.03686523 C190.91239105 218.03065155 192.20881531 218.02443787 193.54452515 218.01803589 C200.3395443 217.98584919 207.13459965 217.97657346 213.9296875 217.97265625 C214.61286482 217.97222887 215.29604214 217.97180149 215.9999218 217.97136116 C234.50000537 217.9656067 252.98725221 218.34404855 271.47900391 218.87646484 C275.21884163 218.98266339 278.95829342 219.05502238 282.69921875 219.11328125 C299.40755126 219.46350202 315.99258228 221.44289949 332.59130859 223.27246094 C333.61838928 223.38478561 334.64546997 223.49711029 335.70367432 223.61283875 C337.64511108 223.82606407 339.58618055 224.04267093 341.52679443 224.26325989 C346.38739399 224.79798808 351.11007387 225.11328176 356 225 C356.29390625 224.18595703 356.29390625 224.18595703 356.59375 223.35546875 C356.8928125 222.64003906 357.191875 221.92460938 357.5 221.1875 C357.7784375 220.47980469 358.056875 219.77210938 358.34375 219.04296875 C361.86959729 214.69386938 367.61825002 213.92317716 372.91796875 213.3046875 C374.67348643 213.14976459 376.43009993 213.00686516 378.1875 212.875 C379.56264771 212.75825928 379.56264771 212.75825928 380.96557617 212.63916016 C383.64294145 212.41457504 386.32110045 212.20535834 389 212 C390.41931054 211.88590951 391.83858575 211.771378 393.2578125 211.65625 C396.171207 211.42573967 399.0847551 211.20552747 402 211 C399.6388765 208.6388765 398.65712315 208.57520338 395.42236328 208.05786133 C394.46175491 207.90016266 393.50114655 207.74246399 392.51142883 207.57998657 C391.45836044 207.41566132 390.40529205 207.25133606 389.3203125 207.08203125 C387.67200691 206.81499893 387.67200691 206.81499893 385.99040222 206.54257202 C382.36981435 205.95803266 378.74748607 205.38514814 375.125 204.8125 C372.61862669 204.41057899 370.11236111 204.00798567 367.60620117 203.60473633 C362.51375614 202.78682143 357.4205663 201.97380367 352.32666016 201.16503906 C345.73044229 200.11756221 339.13642044 199.05691325 332.54296875 197.9921875 C315.3462572 195.22173 298.14994513 192.48924203 280.88793945 190.15307617 C279.86015381 190.01232666 278.83236816 189.87157715 277.7734375 189.7265625 C276.89091309 189.60877441 276.00838867 189.49098633 275.09912109 189.36962891 C273 189 273 189 271 188 C271.33 187.34 271.66 186.68 272 186 C287.32286241 185.88215076 302.59939962 186.10616731 317.90942383 186.74462891 C321.06501597 186.87510403 324.22089683 186.99462701 327.37695312 187.11328125 C345.92555378 187.84227576 364.56585747 188.70388845 382.8125 192.3125 C383.94937256 192.53268799 385.08624512 192.75287598 386.25756836 192.97973633 C417.96041507 199.27627706 457.41686864 210.23507578 476.4375 238.5 C476.953125 239.325 477.46875 240.15 478 241 C471.96047322 239.6393161 467.58424028 237.05815834 462.4375 233.6875 C443.10243587 221.43877272 424.33848 220.71823576 402.24316406 223.59912109 C400.10601489 223.8774727 397.96741644 224.14101538 395.828125 224.40234375 C388.49056191 225.31517796 381.22134599 226.38341064 374 228 C394.30425211 256.57491143 426.85276731 265.57898647 459.3359375 273.3359375 C460.34985817 273.5801368 460.34985817 273.5801368 461.38426208 273.82926941 C463.2356536 274.27388366 465.08860647 274.71198184 466.94165039 275.1496582 C469.53808979 275.87157075 471.66445527 276.68231942 474 278 C472 280 472 280 469.78515625 280.046875 C468.88667969 279.94890625 467.98820312 279.8509375 467.0625 279.75 C466.18722656 279.66234375 465.31195312 279.5746875 464.41015625 279.484375 C462.46996699 279.20879256 460.53209335 278.90535698 458.61132812 278.5168457 C451.47831823 277.07979951 444.64438285 276.65066008 437.375 276.6875 C436.23853027 276.69168945 435.10206055 276.69587891 433.93115234 276.70019531 C420.24081425 276.88250042 407.84609828 279.12392801 395 284 C399.55437844 294.78031068 414.24317501 303.03306082 424.65625 307.60546875 C437.55484682 312.3863617 449.52264362 313.36119672 463.125 313.625 C464.76564391 313.66326008 466.40626946 313.70231621 468.046875 313.7421875 C472.03109768 313.8373032 476.01541389 313.92164603 480 314 C480.66 315.32 481.32 316.64 482 318 C481.01902344 318.03738281 480.03804687 318.07476563 479.02734375 318.11328125 C457.6945088 319.07859203 440.26741217 324.40917862 423 337 C435.27218969 347.69702358 453.32158897 351.92622028 469.22436523 350.85913086 C477.85215855 350.03255684 486.20697055 347.79225179 494.57446289 345.6171875 C506.10187504 342.68399194 506.10187504 342.68399194 511 343 C511.33 343.99 511.66 344.98 512 346 C511.07102905 346.31638428 511.07102905 346.31638428 510.12329102 346.63916016 C507.26493644 347.62116174 504.41387432 348.62291957 501.5625 349.625 C500.10166992 350.12193359 500.10166992 350.12193359 498.61132812 350.62890625 C488.16830233 354.33111606 476.16893428 360.66213144 471 371 C481.04360328 379.2174936 493.2584948 381.52477884 506 381 C515.51554138 379.96807476 522.87806651 376.89365709 531 372 C537.26042454 368.69299833 541.83498752 366.86481109 549 367 C549.33 367.66 549.66 368.32 550 369 C549.29101562 369.26941406 548.58203125 369.53882813 547.8515625 369.81640625 C534.68660319 375.28076607 523.70108882 384.29103845 517 397 C517 397.66 517 398.32 517 399 C522.95154249 401.97577124 534.00943867 400.59727221 540.3125 398.9375 C549.37015095 395.68955446 556.50385031 389.92446726 563 383 C565.1875 381 565.1875 381 567 380 C569.25 380.3125 569.25 380.3125 571 381 C571 381.99 571 382.98 571 384 C569.60469503 385.12305034 568.20689648 386.24313942 566.796875 387.34765625 C561.94523267 391.80905778 557.90627203 397.40893072 557 404 C565.25161102 405.50029291 571.55442722 404.83117825 578.6875 400.1875 C581.34076121 398.30155823 583.85071065 396.31527773 586.3125 394.1875 C588.72557626 392.22336816 589.96980056 391.3496384 593 391 C588.27587951 399.01046518 581.22746609 405.25509105 574 411 C574.33 411.99 574.66 412.98 575 414 C594.24985404 402.42030057 610.44290641 387.63863445 618 366 C615.2903699 363.2903699 612.22312415 362.71040504 608.6328125 361.6796875 C607.1009704 361.22658784 605.56923626 360.77312304 604.03759766 360.31933594 C603.23477356 360.08371948 602.43194946 359.84810303 601.60479736 359.60534668 C587.44235442 355.43424249 573.4683329 351.11057142 560 345 C559.34999023 344.70673828 558.69998047 344.41347656 558.03027344 344.11132812 C545.27170615 338.26283735 534.03076985 330.83854255 524 321 C523.36320312 320.38769531 522.72640625 319.77539062 522.0703125 319.14453125 C506.71188214 303.13763383 505.41792888 280.49638302 504 259.625 C502.248739 225.36451912 502.248739 225.36451912 484.88671875 197.05859375 C473.51497562 188.2096575 458.60968917 186.21427303 444.67578125 184.875 C443.12049755 184.71412466 441.56526728 184.55273216 440.01008606 184.39086914 C420.77648575 182.4378818 401.47701524 181.24354489 382.1875 180 C347.85378561 177.78186426 313.45341667 175.48385249 279.4375 170.125 C278.21808212 169.93691269 278.21808212 169.93691269 276.97402954 169.74502563 C211.23489907 159.59004644 142.7306993 141.6274084 87 104 C86.26168945 103.505 85.52337891 103.01 84.76269531 102.5 C74.58575383 95.63492222 65.1197417 88.21094699 56 80 C55.42733398 79.48904785 54.85466797 78.9780957 54.26464844 78.45166016 C47.92578688 72.78294745 41.88643602 67.05871831 36.390625 60.546875 C35.93171875 60.03640625 35.4728125 59.5259375 35 59 C34.67 59 34.34 59 34 59 Z M57 216 C89.19225962 258.30982693 161.80019933 270.1833787 211 277 C216.6464065 277.62026521 222.32591708 277.79899147 228 278 C228.81001465 278.03399902 229.6200293 278.06799805 230.45458984 278.10302734 C243.38024553 278.5952667 255.16108843 277.15321052 267.80859375 274.61621094 C313.93200604 265.710497 360.17693979 264.16686062 407 266 C404.63875361 263.63875361 402.66890846 262.96186286 399.5625 261.75 C389.68943847 257.71102029 381.20867312 252.80561897 373 246 C371.96875 245.195625 370.9375 244.39125 369.875 243.5625 C366.82385952 240.84300523 364.28765337 237.93296411 361.7109375 234.76953125 C358.85448094 231.81525084 356.04497184 230.77137459 351.984375 230.5859375 C350.75992676 230.52744629 350.75992676 230.52744629 349.51074219 230.46777344 C348.59969727 230.4371582 347.68865234 230.40654297 346.75 230.375 C345.75387695 230.33922852 344.75775391 230.30345703 343.73144531 230.26660156 C340.1545115 230.15525319 336.57791817 230.07325869 333 230 C332.32308105 229.9856189 331.64616211 229.97123779 330.94873047 229.9564209 C295.68426636 229.23711012 260.5200034 231.23505333 225.41192627 234.48828125 C171.55114879 239.45148324 119.51830564 233.26478297 67.62670898 218.13354492 C66.66321533 217.85357666 65.69972168 217.5736084 64.70703125 217.28515625 C63.8663208 217.03644775 63.02561035 216.78773926 62.15942383 216.53149414 C59.8851346 215.88050242 59.8851346 215.88050242 57 216 Z M365.5078125 274.953125 C364.27416458 275.1053653 364.27416458 275.1053653 363.01559448 275.26068115 C361.26879081 275.47742865 359.52222236 275.69607913 357.77587891 275.91650391 C355.1963747 276.24102064 352.61588865 276.55651574 350.03515625 276.87109375 C329.02438061 279.47267478 308.27825862 283.23958735 287.54379272 287.487854 C268.13422994 291.45996462 248.69988382 295.19493094 229.1875 298.625 C199.92880649 303.78023615 170.83105204 309.81030156 142 317 C142 317.66 142 318.32 142 319 C173.1683596 344.62144814 228.89509552 340.01089536 266.50390625 336.4375 C285.7851229 334.31172403 303.47676377 328.9360572 321.65203857 322.38989258 C342.27793192 314.97656745 363.03992929 309.11996077 384.70092773 305.54516602 C385.76255127 305.36783936 386.8241748 305.1905127 387.91796875 305.0078125 C388.85406982 304.85973145 389.7901709 304.71165039 390.75463867 304.55908203 C393.18473966 304.15879862 393.18473966 304.15879862 395 302 C394.09636719 301.18015625 393.19273437 300.3603125 392.26171875 299.515625 C391.07014912 298.42726218 389.87875191 297.33871057 388.6875 296.25 C387.79514648 295.44175781 387.79514648 295.44175781 386.88476562 294.6171875 C379.10855371 287.49261345 379.10855371 287.49261345 378.75 282.5625 C378.95783804 279.60080788 379.30198706 276.8793034 380 274 C375.1044957 273.88189608 370.35582704 274.34249455 365.5078125 274.953125 Z M328.17138672 333.56884766 C291.05852782 350.3167752 252.2664205 363.31539022 213 374 C213 374.66 213 375.32 213 376 C251.9735147 392.58447434 299.86791524 393.0388517 339.46728516 377.20068359 C346.65316372 374.1768146 353.64477731 370.76071453 360.58691406 367.21826172 C377.19179416 358.76836837 394.03620987 351.04600846 412 346 C411.98839844 345.09636719 411.97679687 344.19273437 411.96484375 343.26171875 C411.95582031 342.08222656 411.94679688 340.90273438 411.9375 339.6875 C411.92589844 338.51574219 411.91429687 337.34398437 411.90234375 336.13671875 C412 333 412 333 413 330 C414.578125 329.0703125 414.578125 329.0703125 417 328 C418.22818293 327.35960022 419.45170972 326.71023451 420.671875 326.0546875 C421.33574219 325.70019531 421.99960937 325.34570312 422.68359375 324.98046875 C423.70646484 324.43326172 423.70646484 324.43326172 424.75 323.875 C425.44738281 323.50246094 426.14476562 323.12992188 426.86328125 322.74609375 C428.57577295 321.83120092 430.28792068 320.91566431 432 320 C432 319.34 432 318.68 432 318 C428.41787056 316.68419784 424.83409597 315.37293509 421.25 314.0625 C419.72632813 313.50272461 419.72632813 313.50272461 418.171875 312.93164062 C417.1921875 312.57392578 416.2125 312.21621094 415.203125 311.84765625 C414.30239258 311.51773682 413.40166016 311.18781738 412.47363281 310.84790039 C387.21771631 302.19079439 350.67047608 323.39138966 328.17138672 333.56884766 Z M396.0625 358.9375 C395.06250977 359.41767578 394.06251953 359.89785156 393.03222656 360.39257812 C384.83992503 364.41458453 377.21264437 369.06215932 369.578125 374.04296875 C351.00851632 386.15101512 331.14465329 396.53854 311.59765625 406.96484375 C310.99807602 407.28516068 310.39849579 407.6054776 309.78074646 407.9355011 C306.90338291 409.47177736 304.02274211 411.00125583 301.13647461 412.52075195 C300.11175049 413.06562256 299.08702637 413.61049316 298.03125 414.171875 C297.12955078 414.6472168 296.22785156 415.12255859 295.29882812 415.61230469 C293.17268421 416.8957586 291.64901043 418.1594653 290 420 C318.90278395 428.97601986 352.23578788 426.03674834 379 412 C389.84832343 406.21136892 398.38887784 397.75837057 406.890625 389.01953125 C418.51609414 377.0879431 430.40303932 368.07377679 445 360 C442.40650974 358.2710065 440.66167816 357.44383293 437.76171875 356.52734375 C436.53098633 356.13772461 436.53098633 356.13772461 435.27539062 355.74023438 C434.42138672 355.47533203 433.56738281 355.21042969 432.6875 354.9375 C431.84509766 354.66873047 431.00269531 354.39996094 430.13476562 354.12304688 C427.76530934 353.38016027 425.38780658 352.68124127 423 352 C422.01644531 351.71253906 421.03289062 351.42507813 420.01953125 351.12890625 C411.63829354 350.77110438 403.43099102 355.38343538 396.0625 358.9375 Z M425 385 C421.83617336 388.37753307 418.88028373 391.92164851 415.93359375 395.48828125 C413.0494416 398.97759462 410.02363579 402.31412869 406.9375 405.625 C406.44193604 406.15697998 405.94637207 406.68895996 405.43579102 407.23706055 C404.44615497 408.29867013 403.45616751 409.35995224 402.46582031 410.42089844 C400.52989434 412.50643627 398.61765525 414.6129944 396.70458984 416.71948242 C389.75306338 424.36226029 382.6262181 431.6847 374.796875 438.43359375 C372.3954313 440.52702619 370.15070817 442.64766293 368 445 C368 445.66 368 446.32 368 447 C393.79615777 447.86200032 418.54425306 441.50654448 438.5703125 424.3828125 C442.37381703 420.65268748 445.16582593 416.48629017 448 412 C454.53923938 402.16044028 461.78809162 393.44792592 471 386 C469.9171875 385.13375 469.9171875 385.13375 468.8125 384.25 C467.884375 383.5075 466.95625 382.765 466 382 C465.113125 381.34 464.22625 380.68 463.3125 380 C460.96169193 377.96686869 459.84749985 376.96624949 459 374 C459.20744236 368.39905636 460.72353683 365.33338677 464 361 C450.14511896 361 434.39497372 375.74700205 425 385 Z M464 403 C461.46296984 406.74190969 459.09546914 410.57332421 456.75 414.4375 C455.4282091 416.58532863 454.10528624 418.73246104 452.78125 420.87890625 C452.13800781 421.92449707 451.49476563 422.97008789 450.83203125 424.04736328 C448.36207742 428.0281231 445.81598246 431.95572864 443.25 435.875 C439.34570264 441.86129666 435.54706734 447.90631443 431.8125 454 C431.08885254 455.17731689 431.08885254 455.17731689 430.35058594 456.37841797 C428.05744186 459.49408319 428.05744186 459.49408319 427 463 C441.51577589 464.07524266 452.48774202 454.63666171 462.90380859 445.66381836 C472.96217508 436.75845744 479.56486573 425.74785806 486.1875 414.1875 C490.25532762 407.14876712 494.37045303 400.94893852 500.0546875 395.05078125 C501.88173301 393.12467905 503.42809176 391.13457678 505 389 C501.02140322 388.82397587 497.04382194 388.71857332 493.0625 388.625 C491.94552734 388.57472656 490.82855469 388.52445313 489.67773438 388.47265625 C477.65996097 388.26119983 470.97852605 393.60072226 464 403 Z M503 402 C498.89266927 408.54115288 495.39723264 415.12337233 492.328125 422.20703125 C491.91963318 423.13545334 491.51114136 424.06387543 491.090271 425.02043152 C489.80389013 427.94841028 488.52689707 430.88037494 487.25 433.8125 C486.37950358 435.79648615 485.50841461 437.78021243 484.63671875 439.76367188 C482.41109658 444.83673717 480.18851898 449.91080194 478 455 C477.57686523 455.97412842 477.15373047 456.94825684 476.71777344 457.9519043 C475.86845648 460.37534646 476.11948164 461.62260043 477 464 C486.60692008 463.48534357 493.66660742 458.6601475 500.17578125 451.66015625 C505.33321055 445.39015536 509.71622597 438.93024022 513.83886719 431.94238281 C515.18327736 429.69340734 516.56227567 427.46761145 517.9453125 425.2421875 C518.45078613 424.4262915 518.95625977 423.61039551 519.47705078 422.76977539 C520.48078485 421.15025257 521.486915 419.53221196 522.49560547 417.91577148 C522.95080566 417.17657471 523.40600586 416.43737793 523.875 415.67578125 C524.28492188 415.01489502 524.69484375 414.35400879 525.1171875 413.6730957 C526.15555723 412.02047657 526.15555723 412.02047657 526 410 C524.84242188 409.84144531 523.68484375 409.68289063 522.4921875 409.51953125 C520.95296615 409.28489385 519.41391192 409.04915833 517.875 408.8125 C517.11445312 408.71130859 516.35390625 408.61011719 515.5703125 408.50585938 C509.97519708 407.61353493 507.05813884 405.96089909 503 402 Z M536 412 C533.29634269 415.47768823 531.12951272 419.14930346 529 423 C528.51015625 423.84691406 528.0203125 424.69382812 527.515625 425.56640625 C522.43486045 434.9494311 515 449.28333863 515 460 C516.794375 459.8453125 516.794375 459.8453125 518.625 459.6875 C519.29789063 459.62949219 519.97078125 459.57148437 520.6640625 459.51171875 C538.29248605 455.64997379 549.83573517 435.57781932 558.88623047 421.59057617 C561.60982629 418.03556307 561.60982629 418.03556307 563 414 C562.09636719 413.85304688 561.19273437 413.70609375 560.26171875 413.5546875 C550.5077187 411.69982847 550.5077187 411.69982847 547.6875 407.8125 C547.460625 406.884375 547.23375 405.95625 547 405 C542.65414465 405 539.00116673 409.16666167 536 412 Z M569.65234375 421.453125 C564.84978863 423.48714835 563.24302786 425.57522127 561.07421875 430.20703125 C560.54248047 431.58955078 560.54248047 431.58955078 560 433 C559.59394531 433.95261719 559.18789063 434.90523437 558.76953125 435.88671875 C556.8618347 440.65921559 555.43608233 444.78376159 556 450 C568.41748864 442.6702324 575.37027661 431.86672142 583 420 C579.06682096 418.03341048 573.72548491 420.22485744 569.65234375 421.453125 Z " fill="#5BE1E6" transform="translate(185,464)"/>
<path d="M0 0 C4.34026732 1.33976097 8.42555703 3.0258813 12.56762695 4.86694336 C63.5692557 27.46346451 118.49426706 40.25492987 173 51 C174.51856508 51.30186829 176.03712056 51.60378488 177.55566406 51.90576172 C199.76213905 56.29756251 222.14937016 59.45421264 244.5625 62.58203125 C245.48301651 62.71090729 246.40353302 62.83978333 247.35194397 62.9725647 C248.22709152 63.09352509 249.10223907 63.21448547 250.00390625 63.33911133 C250.83884109 63.45524277 251.67377594 63.57137421 252.53401184 63.69102478 C254.19273643 63.89885416 255.85616881 64.0717795 257.52201843 64.21144104 C264.85068658 64.82702333 264.85068658 64.82702333 267.58203125 67.80078125 C268.12150391 68.36603516 268.66097656 68.93128906 269.21679688 69.51367188 C269.74337891 70.10728516 270.26996094 70.70089844 270.8125 71.3125 C271.35841797 71.89451172 271.90433594 72.47652344 272.46679688 73.07617188 C273.51824138 74.19881456 274.56184469 75.32887002 275.59619141 76.46728516 C277.33977198 78.37097191 279.1570795 80.19277772 281 82 C232.14601751 80.95722556 183.12613441 72.94860744 135 65 C191.73842144 81.88659244 250.04085747 91.20547331 309 96 C309 96.33 309 96.66 309 97 C248.60519627 107.9793511 150.84280683 105.78097795 99.328125 70.4296875 C92.62098623 65.63150361 85.54923858 60.43460702 80.55078125 53.83203125 C77.55456538 50.5054516 75.49023005 49.7125833 71.25 48.375 C45.72265409 39.64155994 17.50340767 25.25178563 1 3 C0.67 2.01 0.34 1.02 0 0 Z " fill="#FF65C4" transform="translate(294,283)"/>
<path d="M0 0 C3.81673547 1.65545153 6.85523768 4.15649294 10.0625 6.75 C26.69336694 19.95123217 43.97118848 31.78101013 62 43 C62.73202637 43.45745605 63.46405273 43.91491211 64.21826172 44.38623047 C74.6089085 50.8525128 85.35462233 56.68463761 96.13818359 62.46484375 C97.99484624 63.46080815 99.84947109 64.46058436 101.70166016 65.46484375 C145.43435223 89.14837099 192.265852 107.48763372 239.83666992 121.84204102 C256.16550213 126.78826899 256.16550213 126.78826899 261.1875 131.4375 C261.85136719 132.0459375 262.51523437 132.654375 263.19921875 133.28125 C265.16511556 135.15759403 267.11776735 137.03934099 269 139 C262.28576811 138.37175777 255.85834363 137.22273416 249.28515625 135.734375 C248.256716 135.50471039 247.22827576 135.27504578 246.16867065 135.03842163 C242.79838745 134.28234762 239.43026806 133.51719525 236.0625 132.75 C234.90404572 132.48733337 233.74559143 132.22466675 232.55203247 131.95404053 C214.94219408 127.95126299 197.41355005 123.67583326 179.9375 119.125 C178.92011749 118.86086304 177.90273499 118.59672607 176.85452271 118.32458496 C163.47738061 114.84038951 150.21293878 111.06232106 137 107 C183.67928446 128.14171416 232.15445401 146.49463237 282.73339844 155.80932617 C284.50127555 156.14701287 286.25364597 156.56448949 288 157 C288.33 157.66 288.66 158.32 289 159 C221.33629172 155.38146256 142.62307937 146.91105192 91 99 C90.39414062 98.45988281 89.78828125 97.91976562 89.1640625 97.36328125 C85.14283791 93.615802 81.94931496 89.38401535 78.75 84.9375 C78.32525391 84.34751221 77.90050781 83.75752441 77.46289062 83.1496582 C71 73.95750633 71 73.95750633 71 70 C69.93265625 69.61328125 69.93265625 69.61328125 68.84375 69.21875 C42.21969158 57.80843925 11.79768572 28.83220851 0.84375 2.1875 C0.5653125 1.465625 0.286875 0.74375 0 0 Z " fill="#FF65C4" transform="translate(277,175)"/>
<path d="M0 0 C4.99282806 0.85270771 9.9687718 1.74950244 14.90625 2.8828125 C61.0889386 13.38439791 110.56586342 15.26297583 157.7751503 15.0428772 C161.16894209 15.02732138 164.56269331 15.01838592 167.95651245 15.01123047 C181.832328 14.97935336 181.832328 14.97935336 195.70751953 14.8527832 C201.47298927 14.78142702 207.23647546 14.76416276 213.00233078 14.78204536 C215.16234584 14.7789555 217.3224362 14.75648832 219.4820137 14.71290398 C232.30881191 14.46338432 240.90503489 15.23282966 250.44296265 24.34376526 C251.70869614 25.65860146 251.70869614 25.65860146 253 27 C253.61396637 27.61072861 254.22793274 28.22145721 254.86050415 28.85069275 C255.23653778 29.22996414 255.61257141 29.60923553 256 30 C247.28736002 31.1146314 238.54382357 31.54554576 229.77734375 31.9921875 C228.93617445 32.0355209 228.09500515 32.07885429 227.22834587 32.12350082 C206.64758713 33.16955055 186.05706001 33.63871353 165.45574951 34.06445312 C160.52574489 34.16762306 155.59588966 34.27751687 150.66601562 34.38671875 C141.11080654 34.59744838 131.555464 34.80118784 122 35 C125.92717477 35.55015969 129.85467107 36.0979621 133.78245544 36.64375305 C135.7615088 36.91922726 137.74031579 37.19646957 139.71911621 37.47375488 C165.68518477 41.07752797 191.41678583 42.17341565 217.61767578 42.13037109 C221.49385487 42.1250085 225.36991814 42.13035071 229.24609375 42.13671875 C241.84019956 42.13978333 254.38177594 41.98857402 266.95410156 41.22045898 C272.3013364 40.89983888 277.64535133 40.90204911 283 41 C283 41.33 283 41.66 283 42 C274.97554482 43.39095755 266.94974125 44.77377516 258.92227364 46.14722919 C255.19166886 46.78575532 251.46152028 47.42670424 247.73242188 48.07397461 C222.96222074 52.37044515 198.18026921 56.31791596 173 57 C172.29649414 57.02191406 171.59298828 57.04382813 170.86816406 57.06640625 C141.62184094 57.87842818 112.13803499 53.3541428 88 36 C87.29488281 35.28972656 86.58976562 34.57945312 85.86328125 33.84765625 C81.26428173 30.8799526 76.23388593 30.72093229 70.875 30.0625 C47.1125383 26.76206651 15.9465206 20.85886572 0 1 C0 0.67 0 0.34 0 0 Z " fill="#FF65C4" transform="translate(355,380)"/>
<path d="M0 0 C4.63302244 1.63412807 8.5794018 4.08324362 12.75 6.625 C26.29197106 14.65003208 39.9818044 20.54929111 54.875 25.625 C55.52041748 25.84920624 56.16583496 26.07341248 56.83081055 26.30441284 C80.77502013 34.56455781 106.14611573 38.50427975 130.97314453 43.17724609 C165.81416079 49.75343465 203.88256116 57.79479672 225.7109375 88.4609375 C231.34767245 96.87062095 235.85020855 106.38857851 239 116 C238.67 116.99 238.34 117.98 238 119 C237.45472656 118.04480469 236.90945313 117.08960938 236.34765625 116.10546875 C228.98106044 103.38810265 221.50834179 93.15964726 209 85 C210.26628885 86.89943328 211.5494878 88.78779198 212.85546875 90.66015625 C219.27867726 99.9809893 224.94377875 109.66960384 230.46948242 119.54711914 C236.82222851 130.78397029 244.17939812 140.59568182 253 150 C253.515625 150.60328125 254.03125 151.2065625 254.5625 151.828125 C266.95287077 165.63822576 287.14360899 173.28317293 304.56347656 178.04785156 C305.38557617 178.27569336 306.20767578 178.50353516 307.0546875 178.73828125 C307.79187012 178.93462158 308.52905273 179.13096191 309.28857422 179.33325195 C311 180 311 180 312 182 C280.53718608 179.23243766 253.36265406 169.41980085 232 145 C225.64500638 137.18411387 220.10929727 128.74362463 214.55615234 120.35131836 C200.91712919 99.74636071 186.17618118 81.92188251 160.81982422 76.59521484 C157.88744384 76.01759333 154.94731165 75.49524499 152 75 C152 74.34 152 73.68 152 73 C164.06617787 70.80614948 175.96866894 72.40342526 188 74 C168.40131255 60.58066342 146.56612182 60.7134189 123.75 60.5 C83.92504945 60.12510908 52.20264444 54.26400876 22 27 C21.27296875 26.34515625 20.5459375 25.6903125 19.796875 25.015625 C12.23141074 17.81920778 5.1550776 9.09417344 0 0 Z " fill="#FF65C4" transform="translate(530,278)"/>
<path d="M0 0 C0.89332031 0.53463867 0.89332031 0.53463867 1.8046875 1.08007812 C2.69800781 1.6456543 2.69800781 1.6456543 3.609375 2.22265625 C8.29408919 5.13451763 8.29408919 5.13451763 13.359375 7.28515625 C13.359375 7.94515625 13.359375 8.60515625 13.359375 9.28515625 C-7.68809561 13.28880938 -28.73828302 17.24585307 -49.890625 20.66015625 C-50.63533051 20.78094543 -51.38003601 20.90173462 -52.14730835 21.02618408 C-61.95859462 22.61213557 -71.78252266 24.02115945 -81.640625 25.28515625 C-75.94479407 27.18376656 -69.60407725 26.40354369 -63.640625 26.28515625 C-62.50584717 26.26630371 -62.50584717 26.26630371 -61.34814453 26.24707031 C-35.61488125 25.72527023 -9.94638831 22.00436713 15.43676758 17.94824219 C22.73569693 16.79045869 29.98732489 15.82445773 37.359375 15.28515625 C34.52486119 17.17483212 32.39372104 18.04380419 29.18310547 19.06933594 C28.12284149 19.41019226 27.06257751 19.75104858 25.97018433 20.10223389 C24.81728912 20.46681702 23.66439392 20.83140015 22.4765625 21.20703125 C21.27492462 21.58950012 20.07328674 21.97196899 18.8352356 22.36602783 C16.27535459 23.17882688 13.71488795 23.98944089 11.15332031 24.796875 C7.32238155 26.00514264 3.4973369 27.23153281 -0.328125 28.45703125 C-21.77113165 35.2714771 -43.33151491 41.15159152 -65.640625 44.28515625 C-66.54039062 44.41664063 -67.44015625 44.548125 -68.3671875 44.68359375 C-86.76249144 46.95993571 -109.85640437 46.42825439 -126.25708008 37.21582031 C-135.34123846 32.15863721 -142.09346327 31.73347874 -152.32421875 32.22900391 C-174.38127792 32.76369231 -199.82607451 27.07169226 -216.640625 12.28515625 C-216.310625 11.62515625 -215.980625 10.96515625 -215.640625 10.28515625 C-214.38241943 10.49664307 -213.12421387 10.70812988 -211.82788086 10.92602539 C-196.25445341 13.38358122 -180.94734369 13.79971117 -165.203125 13.72265625 C-163.90025543 13.7199472 -162.59738586 13.71723816 -161.2550354 13.71444702 C-136.23813091 13.64944791 -111.4955093 12.10779115 -86.640625 9.28515625 C-85.77838318 9.1884967 -84.91614136 9.09183716 -84.027771 8.99224854 C-63.39542492 6.66929823 -42.88734568 3.68243308 -22.42529297 0.16455078 C-21.68467621 0.03906357 -20.94405945 -0.08642365 -20.18099976 -0.2157135 C-18.19084312 -0.55367671 -16.20181797 -0.89828422 -14.21289062 -1.2434082 C-4.1508793 -2.57130213 -4.1508793 -2.57130213 0 0 Z " fill="#FF65C4" transform="translate(624.640625,439.71484375)"/>
<path d="M0 0 C0.96679688 0.556875 1.93359375 1.11375 2.9296875 1.6875 C3.65414062 2.120625 4.37859375 2.55375 5.125 3 C4.125 5 4.125 5 1.82885742 5.78686523 C0.80638916 6.04153564 -0.2160791 6.29620605 -1.26953125 6.55859375 C-2.43661621 6.85701172 -3.60370117 7.15542969 -4.80615234 7.46289062 C-5.43753113 7.62120361 -6.06890991 7.7795166 -6.71942139 7.94262695 C-19.8489558 11.24404624 -32.8150513 15.0083677 -45.75 19 C-46.55797028 19.24910126 -47.36594055 19.49820251 -48.19839478 19.75485229 C-52.75956721 21.16255124 -57.31831238 22.5778541 -61.875 24 C-38.7348414 21.05450637 -15.83580202 16.62225577 6.8671875 11.28515625 C7.84813385 11.05457016 8.8290802 10.82398407 9.8397522 10.58641052 C14.66803394 9.44662604 19.49170604 8.29009114 24.31103516 7.11303711 C25.20299591 6.89872543 26.09495667 6.68441376 27.01394653 6.46360779 C28.68955307 6.06100434 30.36342022 5.65106546 32.03512573 5.2325592 C35.78867107 4.33694257 38.43587389 3.86151977 42.125 5 C-77.06347448 53.63936195 -77.06347448 53.63936195 -129.875 35 C-129.875 34.34 -129.875 33.68 -129.875 33 C-99.80456872 18.07990161 -69.20623122 10.15619945 -36.625 2.5625 C-34.86435715 2.14963242 -34.86435715 2.14963242 -33.06814575 1.72842407 C-29.68771646 0.9378629 -26.3052231 0.15686939 -22.921875 -0.62109375 C-21.8978508 -0.86136292 -20.8738266 -1.10163208 -19.81877136 -1.34918213 C-12.20634829 -3.08149263 -6.99878659 -4.09685069 0 0 Z " fill="#FF65C4" transform="translate(667.875,476)"/>
<path d="M0 0 C1.17175781 0.24878906 2.34351563 0.49757813 3.55078125 0.75390625 C4.79214844 1.02074219 6.03351563 1.28757812 7.3125 1.5625 C8.56675781 1.83191406 9.82101562 2.10132813 11.11328125 2.37890625 C12.06589844 2.58386719 13.01851562 2.78882813 14 3 C12.36612579 6.26774842 8.82066267 6.735302 5.5390625 7.90625 C4.76912964 8.18745697 3.99919678 8.46866394 3.20593262 8.75839233 C0.68130439 9.6788705 -1.84679738 10.58939059 -4.375 11.5 C-6.10329961 12.1283206 -7.83132613 12.75739288 -9.55908203 13.38720703 C-13.04095744 14.65586551 -16.52396353 15.92134216 -20.0078125 17.18457031 C-26.97602423 19.71442424 -33.92593487 22.29312635 -40.875 24.875 C-43.05985464 25.68500696 -45.24474588 26.49491521 -47.4296875 27.3046875 C-48.95314469 27.86973857 -50.4765908 28.43481955 -52 29 C-21.55200828 21.91831275 8.03681879 13.00044431 37.12402344 1.50195312 C38.01379883 1.15455078 38.90357422 0.80714844 39.8203125 0.44921875 C40.58617676 0.14330811 41.35204102 -0.16260254 42.14111328 -0.4777832 C44 -1 44 -1 46 0 C9.0754056 19.89263012 -29.25613185 37.43717537 -71 44 C-72.67642578 44.28810547 -72.67642578 44.28810547 -74.38671875 44.58203125 C-87.10733699 46.05349736 -101.86182963 46.63418764 -114 42 C-114.66 41.34 -115.32 40.68 -116 40 C-87.32645558 24.33069465 -57.08183639 14.5846306 -25.94003296 5.07287598 C-24.15481022 4.52677973 -22.37063433 3.97724878 -20.58755493 3.42419434 C-18.0878415 2.65113367 -15.58391814 1.89371001 -13.078125 1.140625 C-12.33372665 0.90790894 -11.58932831 0.67519287 -10.82237244 0.4354248 C-6.82592059 -0.74450622 -4.00547052 -1.2301792 0 0 Z " fill="#FF65C4" transform="translate(709,496)"/>
<path d="M0 0 C13.23257361 0.69179815 26.42527177 1.72054324 39.625 2.875 C40.6402475 2.96370361 41.655495 3.05240723 42.70150757 3.14379883 C78.36234935 6.2791887 111.76876377 10.18659437 142 31 C138.34696839 32.3113724 136.05007988 31.66550759 132.3984375 30.5234375 C131.28194824 30.1845752 130.16545898 29.84571289 129.01513672 29.49658203 C127.8138916 29.12645996 126.61264648 28.75633789 125.375 28.375 C103.10772034 21.79909971 81.19324218 18.22477299 58 17 C86.07936647 28.67394134 116.31550259 34.0724579 146 40 C145.67 40.66 145.34 41.32 145 42 C106.78149812 42.72616271 68.86495179 37.33948104 34 21 C33.30616211 20.67918457 32.61232422 20.35836914 31.89746094 20.02783203 C24.03266912 16.35995541 16.50973762 12.24565129 9.125 7.6875 C8.44026611 7.26678223 7.75553223 6.84606445 7.05004883 6.41259766 C3.97991675 4.46957507 2.04133483 3.06200224 0 0 Z " fill="#FF65C4" transform="translate(574,350)"/>
<path d="M0 0 C0.33 0.66 0.66 1.32 1 2 C-14.06920759 11.70499318 -29.22311665 21.33632927 -44.97802734 29.89648438 C-46.36516207 30.65352965 -47.74811566 31.41827169 -49.12744141 32.18945312 C-67.60154764 42.51694906 -87.38438553 51.01010184 -108 56 C-108.65726074 56.16081055 -109.31452148 56.32162109 -109.99169922 56.48730469 C-117.6981437 58.30831593 -125.21266546 59.26012886 -133.125 59.3125 C-133.82367187 59.31805908 -134.52234375 59.32361816 -135.2421875 59.3293457 C-139.5129139 59.26882305 -143.02828295 58.55280527 -147 57 C-129.35393957 38.3178406 -97.75765801 29.13592644 -74.38623047 19.29492188 C-68.07717019 16.63455078 -61.80717569 13.96361283 -55.65625 10.94921875 C-54.74375488 10.50747314 -53.83125977 10.06572754 -52.89111328 9.6105957 C-51.28816818 8.82343239 -49.6962916 8.01300749 -48.12060547 7.17260742 C-43.86661486 5.09513471 -41.54256534 4.79075951 -36.9765625 6.2890625 C-35.63981854 6.83254886 -34.30955157 7.39391708 -33 8 C-35.54884462 10.90811451 -38.4205414 12.45793368 -41.8203125 14.2578125 C-42.67835983 14.71496391 -42.67835983 14.71496391 -43.55374146 15.18135071 C-45.40813017 16.16774868 -47.26646961 17.14643161 -49.125 18.125 C-50.3957643 18.79907725 -51.6662715 19.47363939 -52.93652344 20.14868164 C-55.45441118 21.4855538 -57.97390101 22.819318 -60.49511719 24.14990234 C-63.54309632 25.75881749 -66.58871011 27.37204788 -69.6328125 28.98828125 C-73.41902617 30.99762139 -77.20821778 33.00118909 -81 35 C-73.44696885 32.93099036 -66.3176426 30.20866776 -59.125 27.125 C-58.00875244 26.64957764 -56.89250488 26.17415527 -55.74243164 25.68432617 C-42.6934711 20.07921479 -29.84495173 14.05527714 -17 8 C-15.15250473 7.13246959 -13.30486161 6.26525394 -11.45703125 5.3984375 C-7.6354302 3.60440706 -3.81657572 1.80469509 0 0 Z M-85 36 C-85.66 36.66 -86.32 37.32 -87 38 C-85.35 37.67 -83.7 37.34 -82 37 C-82.99 36.67 -83.98 36.34 -85 36 Z " fill="#FF65C4" transform="translate(794,504)"/>
<path d="M0 0 C113.35680994 2.35680994 113.35680994 2.35680994 125 14 C123.80685181 13.95456055 123.80685181 13.95456055 122.58959961 13.90820312 C105.24597746 13.26762613 87.91847282 12.89277758 70.5625 12.875 C69.69672333 12.87250244 68.83094666 12.87000488 67.93893433 12.86743164 C65.48138333 12.86158638 63.02395836 12.86300054 60.56640625 12.8671875 C59.82830719 12.86520355 59.09020813 12.8632196 58.32974243 12.86117554 C54.53891111 12.8165979 54.53891111 12.8165979 51 14 C61.0798991 16.36609452 71.09588839 17.93111826 81.375 19.0625 C82.11714752 19.14649048 82.85929504 19.23048096 83.62393188 19.3170166 C99.71412133 21.12998362 115.83145472 22.18469568 132 23 C127.14089176 26.23940549 121.58970206 26.3483774 115.875 27.125 C115.22005554 27.21404602 114.56511108 27.30309204 113.89031982 27.39483643 C103.13017819 28.81997127 92.47497036 29.38728049 81.625 29.375 C80.62288483 29.3774472 80.62288483 29.3774472 79.6005249 29.37994385 C66.03585418 29.37618041 52.54932533 28.24538548 39.5 24.375 C38.61908691 24.11630127 37.73817383 23.85760254 36.83056641 23.59106445 C23.88149984 19.61025186 11.60277452 13.78673572 2 4 C1.30258356 2.68249003 0.63030388 1.35090312 0 0 Z " fill="#FF65C3" transform="translate(606,395)"/>
<path d="M0 0 C0 3 0 3 -2.3515625 5.53125 C-3.43354172 6.5308476 -4.52547249 7.51973796 -5.625 8.5 C-6.20967041 9.02972412 -6.79434082 9.55944824 -7.39672852 10.10522461 C-13.10626229 15.21423493 -19.09406553 19.93426095 -25.17236328 24.59277344 C-28.42676366 27.09856609 -31.64859017 29.6458422 -34.875 32.1875 C-36.05976085 33.11866135 -37.24464366 34.04966757 -38.4296875 34.98046875 C-39.27789063 35.64691406 -40.12609375 36.31335938 -41 37 C-28.20403891 30.05869009 -16.13258881 22.02776618 -4 14 C-4 19.68846126 -10.28451581 24.32469773 -14.16113281 28.21386719 C-37.40291352 50.78912843 -72.61307529 69.69237947 -105 74 C-95.07213488 44.82735017 -34.31651918 19.6408281 -9.37890625 5.49609375 C-6.22599388 3.7062801 -3.09562142 1.88788411 0 0 Z " fill="#FF65C4" transform="translate(798,512)"/>
<path d="M0 0 C0.99 0.495 0.99 0.495 2 1 C-5.28055528 11.05668916 -12.63821121 21.00594134 -20.55932617 30.5703125 C-24.18097613 34.94664443 -27.62728711 39.42904714 -31 44 C-30.48050781 43.48050781 -29.96101562 42.96101562 -29.42578125 42.42578125 C-20.28385417 33.28385417 -11.14192708 24.14192708 -2 15 C-1.01 15.495 -1.01 15.495 0 16 C-4.99141193 25.3126806 -9.96304387 34.04459278 -17 42 C-17.74378906 42.85207031 -18.48757813 43.70414063 -19.25390625 44.58203125 C-21.47168823 47.08501024 -23.72676455 49.54740835 -26 52 C-26.52722656 52.59296875 -27.05445313 53.1859375 -27.59765625 53.796875 C-39.49301558 66.57449883 -56.85850171 76.78253399 -73 83 C-73.66 83 -74.32 83 -75 83 C-71.27530662 70.46142821 -61.5471463 60.56857342 -53 51 C-52.12472656 50.01257813 -51.24945312 49.02515625 -50.34765625 48.0078125 C-44.99777429 42.07065026 -39.44911544 36.35152834 -33.8125 30.6875 C-33.15926758 30.02959473 -32.50603516 29.37168945 -31.83300781 28.69384766 C-27.97780459 24.85126852 -24.01026772 21.19765294 -19.89038086 17.64086914 C-16.65991336 14.83679165 -13.53717266 11.91813112 -10.40234375 9.0078125 C-7.02180361 5.88731391 -3.55261879 2.92010506 0 0 Z " fill="#FF65C4" transform="translate(830,508)"/>
<path d="M0 0 C1.69612427 0.11758667 1.69612427 0.11758667 3.42651367 0.23754883 C9.35374708 0.70094021 14.84836454 1.47255257 20.5625 3.125 C20.5625 3.455 20.5625 3.785 20.5625 4.125 C19.72043503 4.19350662 19.72043503 4.19350662 18.86135864 4.26339722 C12.92179613 4.74714181 6.98254872 5.23463074 1.04345703 5.72412109 C-1.16154523 5.90538492 -3.3666215 6.08575101 -5.57177734 6.26513672 C-18.88706762 7.34900982 -32.17079196 8.54911446 -45.4375 10.125 C-38.73228606 10.98977337 -32.19416829 11.27188306 -25.4375 11.2578125 C-24.40294678 11.25876923 -23.36839355 11.25972595 -22.30249023 11.26071167 C-20.12076761 11.26138899 -17.93904292 11.25956609 -15.75732422 11.25537109 C-12.47488689 11.25006049 -9.19258913 11.25530871 -5.91015625 11.26171875 C5.95110308 11.26508613 17.73333707 11.01788214 29.5625 10.125 C29.2325 10.785 28.9025 11.445 28.5625 12.125 C26.30029297 12.87109375 26.30029297 12.87109375 23.3046875 13.5625 C22.20253906 13.81773437 21.10039063 14.07296875 19.96484375 14.3359375 C18.80082031 14.59632813 17.63679687 14.85671875 16.4375 15.125 C15.32761719 15.38539063 14.21773437 15.64578125 13.07421875 15.9140625 C-0.68546741 19.04918086 -14.10668985 20.46303222 -28.1809082 20.38574219 C-30.50172938 20.37499199 -32.82177968 20.38572749 -35.14257812 20.3984375 C-48.10710962 20.4127089 -60.44388434 19.13161338 -72.875 15.25 C-73.70708984 15.00636719 -74.53917969 14.76273437 -75.39648438 14.51171875 C-80.538082 12.94529674 -84.87199999 10.96384388 -89.4375 8.125 C-86.67775215 6.2851681 -85.4126675 5.74401332 -82.296875 5.125 C-81.48105957 4.96104736 -80.66524414 4.79709473 -79.82470703 4.62817383 C-78.51928955 4.37910278 -78.51928955 4.37910278 -77.1875 4.125 C-75.84147705 3.8633606 -75.84147705 3.8633606 -74.46826172 3.59643555 C-49.69674298 -1.12184394 -25.11007371 -1.78710257 0 0 Z " fill="#FF65C4" transform="translate(729.4375,431.875)"/>
<path d="M0 0 C-2.69962575 2.69962575 -5.44795027 2.77567803 -9.078125 3.33203125 C-9.79358994 3.44897842 -10.50905487 3.5659256 -11.24620056 3.68641663 C-12.78271483 3.93752968 -14.31976218 4.18539816 -15.85726929 4.43035889 C-30.37714425 6.74931653 -44.71735882 9.47995975 -59 13 C-38.12089041 14.10212309 -17.04705512 10.29061721 3.3503418 6.13183594 C4.17574463 5.96844727 5.00114746 5.80505859 5.8515625 5.63671875 C6.56135254 5.48936279 7.27114258 5.34200684 8.00244141 5.19018555 C10.23369618 4.97775002 11.87149494 5.33995446 14 6 C-20.01998537 18.02249483 -60.44997837 31.28146794 -95.98828125 18 C-98 17 -98 17 -99 15 C-78.21971481 7.1552337 -56.12870131 2.70220779 -34 1 C-32.76121094 0.89042969 -31.52242187 0.78085937 -30.24609375 0.66796875 C-20.16350453 -0.13393389 -10.10574373 -0.09790279 0 0 Z " fill="#FF65C4" transform="translate(768,453)"/>
<path d="M0 0 C0.495 0.99 0.495 0.99 1 2 C-0.18625889 4.64392405 -1.43427357 7.14490505 -2.8125 9.6875 C-3.2139624 10.43829834 -3.6154248 11.18909668 -4.02905273 11.96264648 C-8.20869638 19.63216782 -13.0084573 26.8409398 -18 34 C-13.86809092 30.26924714 -10.90179263 25.79672477 -7.75 21.25 C-7.19570313 20.45722656 -6.64140625 19.66445313 -6.0703125 18.84765625 C-4.70993562 16.90091002 -3.35330684 14.95166452 -2 13 C-1.34 13.33 -0.68 13.66 0 14 C-8.16607867 37.57095236 -21.75959002 58.88584394 -44.8125 70.1875 C-46.8663227 71.14386019 -48.92573881 72.0888178 -51 73 C-47.97772465 57.85714122 -39.66598034 45.67641763 -30 34 C-29.57879883 33.48260254 -29.15759766 32.96520508 -28.72363281 32.43212891 C-22.51120758 24.80778884 -15.90907454 17.58734498 -9.1262207 10.4675293 C-5.91502313 7.09025732 -2.84126322 3.70289943 0 0 Z " fill="#FF65C4" transform="translate(856,514)"/>
<path d="M0 0 C-5.6268857 2.26983953 -11.26843389 4.49853359 -16.92578125 6.69140625 C-18.13427734 7.16126953 -19.34277344 7.63113281 -20.58789062 8.11523438 C-22.46101713 8.8430722 -24.33417041 9.57085408 -26.20922852 10.29370117 C-28.05389102 11.00535368 -29.89611826 11.7233084 -31.73828125 12.44140625 C-32.82149658 12.86107666 -33.90471191 13.28074707 -35.02075195 13.71313477 C-37.85684874 14.93816682 -40.39579269 16.34497002 -43 18 C-28.22327317 13.89753851 -13.69709974 9.30829837 0.72729492 4.11376953 C1.90783447 3.69466309 3.08837402 3.27555664 4.3046875 2.84375 C5.8822583 2.27430664 5.8822583 2.27430664 7.49169922 1.69335938 C10 1 10 1 12 2 C-5.64980902 12.77985833 -23.13406499 21.10069356 -43 27 C-44.22332031 27.36351562 -45.44664062 27.72703125 -46.70703125 28.1015625 C-56.7657365 30.65501793 -70.94764423 32.35078526 -81 29 C-79.79495086 25.38485259 -79.14659597 25.24907067 -75.86328125 23.58203125 C-74.98744385 23.13625732 -74.11160645 22.6904834 -73.20922852 22.23120117 C-72.25330811 21.76302979 -71.2973877 21.2948584 -70.3125 20.8125 C-69.3237085 20.32563721 -68.33491699 19.83877441 -67.31616211 19.3371582 C-13.35263167 -6.67631583 -13.35263167 -6.67631583 0 0 Z " fill="#FF65C4" transform="translate(798,463)"/>
<path d="M0 0 C-1.63195312 0.94359375 -1.63195312 0.94359375 -3.296875 1.90625 C-14.96734904 8.68927178 -26.32110342 15.70815089 -37 24 C-31.50336805 22.42447587 -26.78075683 19.88589403 -21.8125 17.125 C-20.51530029 16.41102051 -20.51530029 16.41102051 -19.19189453 15.68261719 C-11.9095629 11.62266124 -4.8668932 7.22615254 2.08276367 2.62158203 C3.20581909 1.8885083 3.20581909 1.8885083 4.3515625 1.140625 C5.00979004 0.70266602 5.66801758 0.26470703 6.34619141 -0.18652344 C6.89194824 -0.4549707 7.43770508 -0.72341797 8 -1 C8.99 -0.505 8.99 -0.505 10 0 C-7.56518248 18.71574028 -29.51983849 36.68463641 -56.08984375 39.3046875 C-60.66459952 39.4228304 -60.66459952 39.4228304 -63 39 C-63.66 38.34 -64.32 37.68 -65 37 C-55.15476032 26.3516743 -15.47390383 -7.73695191 0 0 Z " fill="#FF65C4" transform="translate(828,467)"/>
<path d="M0 0 C0.66 0.33 1.32 0.66 2 1 C-5.92618416 10.76584171 -5.92618416 10.76584171 -9.80078125 15.2734375 C-15.25361601 21.619068 -20.37502194 28.00728573 -25 35 C-19.19108254 30.18132753 -13.86934448 24.98743592 -8.5625 19.625 C-7.73556641 18.79355469 -6.90863281 17.96210938 -6.05664062 17.10546875 C-4.03544469 15.0725896 -2.01663665 13.03740037 0 11 C0.495 11.99 0.495 11.99 1 13 C-7.49395023 31.50255593 -24.07844587 47.46001122 -43 55 C-40.44064241 33.8533079 -19.71293453 15.58375838 -4 3 C-2.67508126 1.9888778 -1.34565187 0.98336098 0 0 Z " fill="#FF65C4" transform="translate(848,465)"/>
<path d="M0 0 C0.66 0.33 1.32 0.66 2 1 C1.58488159 1.8521106 1.58488159 1.8521106 1.16137695 2.72143555 C-8.2564834 19.2035776 -8.2564834 19.2035776 -13 37 C-11.22882776 34.10437383 -9.45812293 31.2084621 -7.6875 28.3125 C-7.18798828 27.49587891 -6.68847656 26.67925781 -6.17382812 25.83789062 C-3.76709104 21.90104254 -1.36453613 17.96241378 1 14 C3.40717204 20.60388644 -0.81022155 28.22054535 -3.40625 34.28515625 C-8.19505767 43.94493251 -15.78131451 54.07224215 -25 60 C-25.66 60 -26.32 60 -27 60 C-26.4316647 38.04159072 -13.06773807 16.86616953 0 0 Z M-15 38 C-14 40 -14 40 -14 40 Z " fill="#FF65C4" transform="translate(859,471)"/>
<path d="M0 0 C0.33 0 0.66 0 1 0 C0.67 9.9 0.34 19.8 0 30 C1.32 24.06 2.64 18.12 4 12 C6.76795747 14.76795747 6.29958639 16.44272085 6.3125 20.3125 C6.07400379 33.29729387 2.55391917 43.02891888 -4 54 C-4.66 54 -5.32 54 -6 54 C-6.34660624 52.69094252 -6.67632837 51.37741598 -7 50.0625 C-7.185625 49.33160156 -7.37125 48.60070312 -7.5625 47.84765625 C-8.63894433 40.841157 -7.93766505 33.95576593 -6.8125 27 C-6.68447998 26.19199951 -6.55645996 25.38399902 -6.42456055 24.55151367 C-5.00272272 16.15048801 -2.62214751 8.09445535 0 0 Z " fill="#FF65C3" transform="translate(869,471)"/>
<path d="" fill="#FF55C6" transform="translate(0,0)"/>
<path d="" fill="#FF63C6" transform="translate(0,0)"/>
<path d="" fill="#FF69C3" transform="translate(0,0)"/>
</svg>
